<?xml version="1.0" standalone="no"?>
<!DOCTYPE svg PUBLIC "-//W3C//DTD SVG 20010904//EN"
 "http://www.w3.org/TR/2001/REC-SVG-20010904/DTD/svg10.dtd">
<svg version="1.0" xmlns="http://www.w3.org/2000/svg"
 width="472.000000pt" height="680.000000pt" viewBox="0 0 472.000000 680.000000"
 preserveAspectRatio="xMidYMid meet">

<g transform="translate(0.000000,680.000000) scale(0.100000,-0.100000)"
fill="#000000" stroke="none">
<path d="M0 3400 l0 -3400 2360 0 2360 0 0 3400 0 3400 -2360 0 -2360 0 0
-3400z m3777 2935 c53 -10 142 -15 278 -15 l200 0 -79 -79 c-43 -43 -74 -81
-68 -85 22 -14 82 -116 102 -175 l21 -62 -1 -2513 c0 -2788 5 -2560 -68 -2700
-69 -132 -201 -239 -362 -292 -52 -18 -125 -19 -1374 -22 -1470 -3 -1420 -5
-1563 64 -59 28 -97 56 -154 113 -76 75 -110 130 -153 241 l-21 55 -3 2510
c-2 1687 1 2526 8 2558 29 138 144 275 290 345 154 74 73 70 1547 71 1135 1
1332 -1 1400 -14z"/>
<path d="M3540 5978 l0 -283 280 280 c154 154 280 281 280 282 0 2 -126 3
-280 3 l-280 0 0 -282z"/>
<path d="M994 6225 c-135 -29 -269 -127 -321 -234 -24 -49 -28 -68 -28 -146 0
-78 4 -98 27 -145 54 -111 172 -199 313 -235 88 -22 2697 -23 2793 0 188 44
329 184 348 346 8 72 -15 156 -63 227 l-36 53 -274 -273 -273 -273 -2 345 -3
345 -1210 2 c-973 1 -1222 -1 -1271 -12z"/>
<path d="M640 3231 c0 -1926 3 -2325 14 -2367 47 -175 201 -321 375 -354 35
-6 513 -10 1360 -10 1428 0 1359 -3 1481 58 119 59 224 202 250 341 7 35 10
839 10 2353 l0 2300 -56 -51 c-30 -28 -92 -69 -137 -91 -153 -74 -79 -71
-1592 -68 l-1350 3 -81 27 c-86 30 -176 82 -236 140 l-38 35 0 -2316z m2215
1849 l0 -25 -808 -3 c-712 -2 -808 0 -813 13 -4 8 -4 22 0 30 5 13 101 15 813
13 l808 -3 0 -25z m-1102 -318 c14 -15 17 -50 19 -223 l3 -204 204 -3 c224 -3
241 -7 241 -62 0 -55 -17 -59 -241 -62 l-204 -3 -3 -204 c-3 -232 -6 -244 -71
-239 -56 5 -61 24 -61 250 l0 198 -212 2 -213 3 -13 28 c-11 22 -11 32 0 55
l13 27 212 3 212 2 3 209 c2 158 6 212 17 224 18 23 74 22 94 -1z m1555 -1121
c9 -5 122 -220 251 -478 201 -403 232 -472 223 -490 -14 -26 -59 -38 -79 -21
-8 6 -105 191 -214 410 -109 219 -202 398 -207 398 -4 0 -94 -174 -201 -388
-106 -213 -203 -397 -214 -409 -11 -13 -27 -23 -35 -23 -9 0 -107 91 -219 202
-122 121 -207 198 -212 192 -5 -5 -100 -236 -211 -514 -111 -278 -206 -513
-211 -522 -19 -35 -83 -34 -94 1 -3 10 -46 260 -95 557 -50 296 -93 546 -96
554 -9 24 -17 3 -90 -222 -38 -115 -77 -218 -87 -229 -17 -18 -33 -19 -262
-19 -264 0 -275 2 -275 55 0 49 26 55 255 55 l210 0 110 327 c65 193 117 331
126 336 21 13 65 1 73 -19 6 -15 22 -105 46 -254 5 -30 18 -111 29 -180 20
-119 25 -147 52 -300 6 -36 23 -141 38 -234 15 -93 31 -171 37 -173 6 -2 93
203 193 454 101 252 190 466 199 476 8 9 24 17 35 17 13 0 95 -74 222 -200
110 -110 205 -200 211 -200 5 0 101 183 213 408 111 224 210 415 219 425 17
19 35 22 60 8z m-805 -1881 c62 -23 123 -81 137 -131 6 -18 10 -80 10 -136 l0
-103 55 0 c67 0 114 -18 143 -55 21 -27 22 -35 22 -325 0 -286 -1 -298 -21
-324 -44 -56 -44 -56 -471 -56 -377 0 -394 1 -426 20 -58 36 -62 58 -62 362 0
246 2 277 18 307 26 49 73 71 149 71 l63 0 0 116 c0 133 11 167 69 215 72 59
212 77 314 39z"/>
<path d="M2320 1691 c-102 -33 -120 -64 -120 -201 l0 -100 183 2 182 3 0 107
c-1 100 -3 109 -25 134 -14 14 -37 32 -52 40 -34 17 -134 26 -168 15z"/>
<path d="M1979 1273 c-6 -16 -9 -124 -7 -281 3 -238 4 -255 22 -268 31 -22
742 -21 774 2 22 15 22 18 22 283 0 194 -3 270 -12 279 -9 9 -112 12 -400 12
l-388 0 -11 -27z"/>
</g>
</svg>
